<svg data-v-fde0c5aa="" xmlns="http://www.w3.org/2000/svg" viewBox="0 0 300 300" class="iconAbove"><!----><defs data-v-fde0c5aa=""><!----></defs><rect data-v-fde0c5aa="" fill="#3B1342" x="0" y="0" width="300px" height="300px" class="logo-background-square"></rect><defs data-v-fde0c5aa=""><!----></defs><g data-v-fde0c5aa="" id="7e878028-8f98-4e44-946f-96dfe8f0336c" fill="#FFFFFF" transform="matrix(6.443381297828783,0,0,6.443381297828783,68.5556620238393,175.7205731159905)"><path d="M3.60 6.80L3.60 6.80L3.60 6.80Q3.65 6.80 3.81 6.92L3.81 6.92L3.81 6.92Q3.96 7.03 4.13 7.03L4.13 7.03L4.14 7.03L4.14 7.03Q4.62 7.03 4.90 6.65L4.90 6.65L4.90 6.65Q5.18 6.27 5.21 5.89L5.21 5.89L5.25 5.52L5.25 5.52Q5.25 4.98 5.09 4.60L5.09 4.60L5.09 4.60Q4.93 4.21 4.72 4.03L4.72 4.03L4.72 4.03Q4.51 3.84 4.23 3.74L4.23 3.74L4.23 3.74Q3.88 3.60 3.49 3.60L3.49 3.60L3.49 3.60Q3.11 3.60 2.87 3.67L2.87 3.67L2.87 3.67Q2.63 3.75 2.60 3.82L2.60 3.82L2.59 3.91L2.59 3.91Q2.46 5.80 2.46 7.29L2.46 7.29L2.46 7.29Q2.46 8.78 2.51 9.86L2.51 9.86L2.51 9.86Q2.56 10.93 2.61 11.52L2.61 11.52L2.61 11.52Q2.66 12.10 2.66 12.15L2.66 12.15L2.66 12.15Q2.66 12.50 2.04 12.71L2.04 12.71L2.04 12.71Q1.43 12.92 0.83 12.92L0.83 12.92L0.83 12.92Q0.55 12.92 0.55 12.78L0.55 12.78L0.55 12.78Q0.55 12.74 0.59 12.59L0.59 12.59L0.59 12.59Q0.85 11.97 0.85 6.86L0.85 6.86L0.85 6.86Q0.85 3.85 0.45 3.42L0.45 3.42L0.45 3.42Q0.36 3.33 0.36 3.24L0.36 3.24L0.36 3.24Q0.36 3.15 0.57 3.04L0.57 3.04L0.57 3.04Q0.77 2.93 1.71 2.78L1.71 2.78L1.71 2.78Q2.65 2.63 3.70 2.63L3.70 2.63L3.70 2.63Q5.35 2.63 6.18 3.53L6.18 3.53L6.18 3.53Q7.01 4.42 7.01 5.66L7.01 5.66L7.01 5.66Q7.01 6.90 6.33 7.81L6.33 7.81L6.33 7.81Q5.66 8.72 4.56 8.72L4.56 8.72L4.56 8.72Q4.21 8.72 3.86 8.60L3.86 8.60L3.86 8.60Q3.16 8.34 3.16 7.55L3.16 7.55L3.16 7.55Q3.16 7.38 3.28 7.09L3.28 7.09L3.28 7.09Q3.39 6.80 3.60 6.80ZM12.31 6.44L12.31 6.44L12.31 6.44Q12.05 7.95 12.05 10.29L12.05 10.29L12.05 10.29Q12.05 12.01 12.19 12.56L12.19 12.56L12.25 12.74L12.25 12.74Q12.25 12.92 11.94 12.92L11.94 12.92L11.94 12.92Q10.86 12.92 10.71 12.32L10.71 12.32L10.71 12.32Q10.70 12.25 10.65 12.25L10.65 12.25L10.65 12.25Q10.60 12.25 10.56 12.31L10.56 12.31L10.56 12.31Q10.12 12.88 9.21 12.88L9.21 12.88L9.21 12.88Q8.71 12.88 8.16 12.63L8.16 12.63L8.16 12.63Q7.83 12.47 7.62 12.09L7.62 12.09L7.62 12.09Q7.41 11.70 7.41 11.14L7.41 11.14L7.62 8.08L7.62 8.08Q7.62 7.11 7.42 6.71L7.42 6.71L7.42 6.71Q7.35 6.55 7.35 6.51L7.35 6.51L7.35 6.51Q7.35 6.43 7.42 6.40L7.42 6.40L7.42 6.40Q7.64 6.33 7.99 6.33L7.99 6.33L7.99 6.33Q9.35 6.33 9.35 7.45L9.35 7.45L9.35 7.45Q9.35 7.80 9.06 9.04L9.06 9.04L9.06 9.04Q8.78 10.29 8.78 10.81L8.78 10.81L8.78 10.81Q8.78 11.34 9.01 11.62L9.01 11.62L9.01 11.62Q9.24 11.90 9.65 11.90L9.65 11.90L9.65 11.90Q10.07 11.90 10.30 11.61L10.30 11.61L10.30 11.61Q10.54 11.31 10.58 11.02L10.58 11.02L10.63 10.72L10.63 10.72Q10.68 10.23 10.68 9.00L10.68 9.00L10.68 9.00Q10.68 7.77 10.61 7.44L10.61 7.44L10.61 7.44Q10.53 7.11 10.53 7.03L10.53 7.03L10.53 7.03Q10.53 6.68 11.09 6.47L11.09 6.47L11.09 6.47Q11.65 6.27 12.10 6.27L12.10 6.27L12.10 6.27Q12.31 6.27 12.31 6.44ZM12.98 12.77L12.98 12.77L12.98 12.77Q13.23 11.26 13.23 9.14L13.23 9.14L13.23 9.14Q13.23 7.03 13.10 6.40L13.10 6.40L13.10 6.40Q13.10 6.22 13.52 6.22L13.52 6.22L13.52 6.22Q14.17 6.22 14.38 6.71L14.38 6.71L14.38 6.71Q14.39 6.75 14.45 6.75L14.45 6.75L14.45 6.75Q14.50 6.75 14.53 6.72L14.53 6.72L14.53 6.72Q14.97 6.27 15.88 6.27L15.88 6.27L15.88 6.27Q16.79 6.27 17.32 6.73L17.32 6.73L17.32 6.73Q17.85 7.20 17.85 8.08L17.85 8.08L17.85 8.08Q17.85 8.61 17.76 9.59L17.76 9.59L17.76 9.59Q17.67 10.57 17.67 11.05L17.67 11.05L17.67 11.05Q17.67 12.18 18.05 12.68L18.05 12.68L18.05 12.68Q18.10 12.75 18.10 12.82L18.10 12.82L18.10 12.82Q18.10 13.01 17.71 13.01L17.71 13.01L17.71 13.01Q15.97 13.01 15.97 11.47L15.97 11.47L15.97 11.47Q15.97 10.88 16.24 9.83L16.24 9.83L16.24 9.83Q16.51 8.78 16.51 8.23L16.51 8.23L16.51 8.23Q16.51 7.11 15.58 7.11L15.58 7.11L15.58 7.11Q15.13 7.11 14.90 7.38L14.90 7.38L14.90 7.38Q14.67 7.64 14.64 7.99L14.64 7.99L14.64 7.99Q14.62 8.33 14.62 9.28L14.62 9.28L14.62 9.28Q14.62 10.74 14.71 11.82L14.71 11.82L14.74 12.12L14.74 12.12Q14.74 12.52 14.23 12.73L14.23 12.73L14.23 12.73Q13.72 12.95 13.35 12.95L13.35 12.95L13.35 12.95Q12.98 12.95 12.98 12.77ZM20.80 6.47L20.80 6.47L20.80 6.47Q20.80 10.81 21 12.15L21 12.15L21 12.15Q21 12.49 20.36 12.71L20.36 12.71L20.36 12.71Q19.71 12.92 19.29 12.92L19.29 12.92L19.29 12.92Q18.87 12.92 18.87 12.80L18.87 12.80L18.87 12.80Q18.87 12.71 18.91 12.59L18.91 12.59L18.91 12.59Q19.18 12.00 19.18 7.85L19.18 7.85L19.18 7.85Q19.18 3.93 18.84 3.50L18.84 3.50L18.79 3.42L18.79 3.42Q18.70 3.35 18.70 3.24L18.70 3.24L18.70 3.24Q18.70 3.14 18.86 3.07L18.86 3.07L18.86 3.07Q19.07 2.94 19.61 2.81L19.61 2.81L19.61 2.81Q20.15 2.69 20.58 2.69L20.58 2.69L20.58 2.69Q21.01 2.69 21.01 2.88L21.01 2.88L21.01 2.93L21.01 2.93Q20.85 4.38 20.80 6.47ZM21.78 7.21L21.78 7.21L21.83 6.65L21.83 6.65Q21.84 6.52 22.02 6.52L22.02 6.52L22.51 6.52L22.46 5.40L22.46 5.35L22.46 5.35Q22.46 5.03 22.95 4.73L22.95 4.73L22.95 4.73Q23.44 4.44 23.84 4.44L23.84 4.44L23.84 4.44Q23.97 4.44 23.97 4.55L23.97 4.55L23.97 4.56L23.97 4.56Q23.91 4.94 23.86 6.51L23.86 6.51L23.86 6.51Q24.47 6.51 24.64 6.48L24.64 6.48L24.64 6.48Q24.81 6.45 24.82 6.45L24.82 6.45L24.82 6.45Q24.92 6.45 24.92 6.62L24.92 6.62L24.92 6.62Q24.92 6.79 24.77 7.05L24.77 7.05L24.77 7.05Q24.61 7.31 24.43 7.32L24.43 7.32L23.84 7.32L23.84 7.32Q23.83 7.80 23.83 8.93L23.83 8.93L23.83 8.93Q23.83 10.05 23.85 10.78L23.85 10.78L23.85 10.78Q23.87 11.51 23.90 11.88L23.90 11.88L23.90 11.88Q23.93 12.25 23.96 12.47L23.96 12.47L23.96 12.47Q24.00 12.70 24.02 12.80L24.02 12.80L24.02 12.80Q24.04 12.89 24.04 12.92L24.04 12.92L24.04 12.92Q24.04 13.06 23.86 13.08L23.86 13.08L23.86 13.08Q23.31 13.08 22.77 12.92L22.77 12.92L22.77 12.92Q22.23 12.77 22.23 12.39L22.23 12.39L22.23 12.39Q22.53 10.04 22.53 7.34L22.53 7.34L22.53 7.34Q22.15 7.34 21.95 7.36L21.95 7.36L21.94 7.36L21.94 7.36Q21.81 7.36 21.78 7.21Z"></path></g><defs data-v-fde0c5aa=""><!----></defs><g data-v-fde0c5aa="" id="ed5e1718-0b14-4533-8ecd-d178c7171993" stroke="none" fill="#BF557B" transform="matrix(2.8089496244396086,0,0,2.8089496244396086,76.96730976457017,34.30064309790349)"><path d="M6 49.971h40v-8.004H6v8.004zm31.003-6.004h4v2h-4v-2zm-10 0h4v2h-4v-2zM35.723 8.971l3.148-5.508-1.737-.992-3.58 6.266-18.206-6.708-.691 1.877 13.75 5.065H6v30.996h40V8.971H35.723zM42 38.001H10v-25h32v25z"></path></g><!----></svg>